<svg height="316.227766" viewBox="0 0 135 135" width="316.227766" xmlns="http://www.w3.org/2000/svg"><path d="m67.5 1c-36.73 0-66.5 29.77-66.5 66.5s29.77 66.5 66.5 66.5 66.5-29.77 66.5-66.5-29.77-66.5-66.5-66.5zm0 112.59c-25.46 0-46.09-20.64-46.09-46.09s20.64-46.09 46.09-46.09 46.09 20.64 46.09 46.09-20.64 46.09-46.09 46.09z" fill="#005291"/><path d="m107.7 67.68c.65-1.79-.12-2.95-.25-4.67.02-2.05.01-4.23-.63-6.21.29-.46.42-1.09.1-1.58-.47-.73-1.24-1.46-1-2.42-.62-1.05-.8-2.29-1.14-3.44-.37-1.41-1.75-2.15-2.31-3.47-.69-1.32-1.15-2.82-2.1-4-.07-1.14-.69-2.2-1.58-2.89-2.08-1.01-1.06-.6-2.06-2.35-1-1.23-2.5-1.99-3.64-3.08-.2-.28-.65-.66-1.03-.47-.51-.88-1.66-1.4-2.73-1.34-.65-.59-2.81-1.21-3.05-2.05-.28.05-.64.04-.92 0-1-.26-2.1-.88-3.12-.37-1.16-.93-2.74-.96-4.09-1.46-1.61-.69-3.45-.95-5.09-1.68-1.4-.41-2.88-.02-4.31-.04-2.79-.25-5.69-.33-8.42.5-2.38.47-4.67 1.17-6.98 1.92-.77.64-1.28.3-2.18.35-.9.18-1.78.73-2.73.54-.98 1.63-3.83 1.89-5.32 2.74-1.39 1.29-3.35 2.36-4.86 3.87-.39.4-.69.98-.83 1.52.05.73-1.64.89-2.2 1.79-.49.65-.86 1.43-.9 2.26-.56.7-.98 1.56-1.35 2.37-.38.94-.84 1.92-1.43 2.75-.55.65-1.29 1.2-1.51 2.06-.47 1.22-.57 2.6-1.26 3.73.22.86-.4 1.57-.87 2.21-.41.52-.41 1.24-.03 1.78-.64 1.97-.65 4.15-.63 6.21-.11 1.7-.9 2.91-.24 4.67-.66 1.56.15 3.02.24 4.58-.02 2.05-.01 4.23.63 6.2-.36.53-.41 1.27.03 1.78.48.64 1.08 1.35.87 2.21.69 1.14.79 2.52 1.26 3.73.23.86.95 1.42 1.51 2.06.59.83 1.05 1.81 1.43 2.75.38.8.79 1.67 1.35 2.36.05.82.41 1.61.9 2.26 1.92 1.92 1.61.16 2.74 2.99 1.49 1.72 3.67 2.81 5.14 4.2 1.48.86 4.34 1.12 5.32 2.74.95-.18 1.83.36 2.73.55.7.12 1.32-.35 1.88.2.99.52 2.14.66 3.2.98.76.31 1.49.69 2.33.7 1.48.43 2.95 1.29 4.53 1.28 1.54-.14 3.08-.16 4.61 0 1.16.1 2.3-.14 3.46-.03 1.4-.05 2.78-.53 4.14-.85.95-.23 1.97-.21 2.82-.75 1.35-.5 2.93-.53 4.09-1.46 1.14.56 2.3-.28 3.43-.41.78.28.7-.64 1.49-.85.39.09 1.93-1.06 2.17-1.17 1.06.04 2.23-.45 2.73-1.34.57.2 1.01-.46 1.38-.8 1.08-.91 2.39-1.64 3.29-2.75 1-1.83.03-1.34 2.07-2.35.89-.69 1.51-1.76 1.58-2.9.95-1.18 1.41-2.67 2.1-4 .56-1.31 1.95-2.05 2.31-3.47.34-1.15.53-2.39 1.14-3.44-.25-.96.53-1.68 1-2.42.3-.49.21-1.12-.1-1.58.64-1.97.65-4.15.63-6.2.08-1.56.92-3.02.24-4.58z" fill="#aa2826" fill-rule="evenodd"/><path d="m105.3 78.06c-2.47-4.5-10.45-4.03-14.78-6.05-2.18-1.41-5.25-1.31-7.3-2.78-1.26-.11-2.6-.94-3.86-1.05-1.5-.26-4.65-.35-5.65-1.65-.54-1.19-1.55-2.27-2.62-2.99-2-.76-5.93-.04-6.01 2.57 1.19 1.61-8.1 2.46-8.5 2.91-3.65 1.3-9.22 2.29-12.72 3.9-1.1.37-2.48.48-3.35 1.31-1.39.65-4.37 1.16-5.26 2.57-4.02.62-3.64 3.66.28 3.92 1.38.09 2.87-.46 3.86-1.33 2.49-.29 6.9-2.37 9.2-3.4 3.79-1.83 10.46 1.3 13.89 2.93-3.42 2.14-8.09 5.17-10.99 7.78-.45.37-.48 1.03-.74 1.45-.9.74-1.39 1.91-1.77 2.77-.78.47-.48 1.35-.71 1.94-.31.4-.58.89-.62 1.41.21 1.52-.98 1.41-1.55 2.43-.3.68-.17 1.43-.19 2.15.05.48.6.83.14 1.21-.68 1.07 1.17 3.84 2.47 3.18 1.2-.51 2.45-1.84 2.91-3.08.23-.51-.14-1.13.28-1.54.72-1.11 1.41-2.98 1.91-4.19.35-1.15 1.98-2.21 1.57-3.45.83-1.16 1.88-2.14 2.71-3.27.32-.6 1.18-.62 1.53-1.24.79-.75 1.71-1.43 2.26-2.46 2.14-1.13 4.63-3.38 7.21-2.61 1.13.76 2.44 1.41 3.26 2.48.71.6 1.78.83 2.52 1.41 4.07 3.11 7.26 7.25 10.21 11.47.66 1.25 1.59 2.31 1.87 3.79.61.87.15 2.2 1.27 2.81 2.03 1.35 5.37-.1 5.28-2.68-.1-1.47-1.91-2.09-2.34-3.43-.89-2.01-.55-2.61-2.78-3.74-1.8-3.82-5.75-6.72-8.26-10-2.73-1.84-5.83-4.01-9.01-4.97 4.31-1.74 9.34-3.82 13.66-5.26 4.07 1.07 9.58 2.97 13.52 4.57.76.26 1.13 1.08 1.87 1.35 1.54.43 5.4 1.48 5.36-1.15zm-29.64-5.71c-11.69 4.48-5.51 4.28-17.11.23 8.95-2.54 9.87-4.06 19.36-.98z" fill="#fff"/><path d="m37.21 56.49c1.46-.01 3.69-.41 3.78-2.19 1-.03 1.91-.95 1.45-1.96 2.7-1.15 5.11-2.98 7.71-4.1 3.67-2.25 9.38-2.58 13.67-3.04.01.51-.17 1.04-.61 1.29-.37.38-.5.91-.96 1.21-1.07 1.49-3.03 2.43-3.6 4.17-1.91 2.35-4.83 4.67-7.1 6.69-.93.76-2.34 1.14-3.21 2.1-2.78 1.69-6.07 2.71-8.73 4.57-1.66.71-3.49 4.11-.34 3.83 1.47.03 2.71-.76 3.91-1.48 1.55-.15 2.87-1.46 4.35-1.59.72.03 1.15-.49 1.54-.98.46-.44 2.05-1.45 2.73-1.7 1.39-.86 2.51-2.38 3.98-3.21.86-1.13 2.29-2.12 3.54-2.84.81-.48.56-1.68 1.59-1.71.97-.21.59-1.52 1.63-1.69.34-.22.59-.58.69-.98.46-.02.85-.25 1.14-.61.79-.58 1.17-3.24 2.31-2.26.8.68 1.81 1.94 2.68 2.61 1.12.67 2.42 1.4 3.23 2.4 1.54 1.09 3.2 2.41 4.77 3.49.33.26 1.47.46 1.87.58 0 .73.77 1.03 1.36 1.18 5.21 1.99 10.59 5.62 15.89 7.45 3.23 1.34 4.56-1.41 1.62-3.32-1.69-.82-3.78-2.06-5.57-2.64-.63-.44-1.17-1.14-2.02-1.09-.59-.48-1.52-.94-2.31-1.05-3.53-1.42-7.25-3.16-10.14-5.56-2.73-1.14-5.3-3.15-6.95-5.5-4.35-6.2 6.86-1.82 9.77-1.75 4.77.67 10.02 2.78 13.89 5.33 1.4 1.79 6.18 1.58 4.49-1.46-.59-1-1.66-1.5-2.71-1.87-2.33-1.23-5.26-3.19-7.81-3.65-6.04-2.18-12.76-2.85-19.06-3.52 2.38-1.33 5.71-.87 8.33-.39 3.55-.64 7.62-.34 11.3-.39 2.92.02 5.85.05 8.72-.51 2.25-.67.48-2.79-1.11-2.92-9.18-.27-18.49.03-27.61.29-9.5-.62-19.96.01-29.35-.12-1.79.01-4.46 1.97-1.43 2.88 2.19.22 4.93.21 7.09.34 3.81-.35 9.72.01 13.63-.19.19.01 2.39.02 2.5.1.21.83 1.28.79 1.61 1.47-8.04 1.22-17.67 1.88-23.61 8.07-1.19.84-5.22 5.5-2.52 6.23z" fill="#fff"/><g fill="#e5e5ce"><path d="m42.09 117.7-3.54-1.84-.93.75c-.31.25-.52.49-.63.7-.15.28-.14.55.02.8.09.15.39.38.89.69l-.14.27-3.33-1.74.14-.27c.39.13.76.14 1.12.02s.91-.48 1.64-1.06l7.74-6.12.14.07-.67 10.09c-.06.96-.03 1.59.08 1.91.09.24.28.45.57.64l-.14.27-4.84-2.52.14-.27.2.1c.39.2.69.29.9.26.15-.02.26-.11.34-.25.05-.09.08-.19.1-.3.01-.05.04-.27.07-.67l.12-1.52zm.03-.68.31-4.22-3.33 2.65 3.03 1.58z"/><path d="m60.63 114.96-.68 3.7-.33-.07c.04-.96-.2-1.78-.69-2.47-.5-.69-1.11-1.11-1.82-1.26-.55-.12-1.02-.06-1.41.17s-.62.54-.7.92c-.05.24-.04.47.03.69.1.29.3.59.6.92.22.23.74.67 1.57 1.32 1.16.91 1.9 1.69 2.24 2.35.33.66.41 1.35.26 2.08-.19.92-.72 1.64-1.58 2.16s-1.84.66-2.95.42c-.35-.07-.67-.18-.96-.31-.29-.14-.65-.35-1.08-.64-.24-.16-.44-.26-.61-.3-.14-.03-.3 0-.48.07-.18.08-.34.21-.49.42l-.3-.06.87-4.17.3.06c0 1.22.27 2.21.82 2.97s1.22 1.22 2.01 1.39c.61.13 1.13.06 1.56-.19.43-.26.69-.6.78-1.04.06-.26.04-.53-.05-.8s-.25-.55-.48-.83c-.24-.28-.68-.67-1.32-1.17-.9-.7-1.53-1.28-1.9-1.72s-.62-.9-.77-1.38-.16-.98-.06-1.49c.18-.88.66-1.56 1.44-2.05.78-.48 1.66-.62 2.64-.42.36.08.7.19 1.02.35.24.12.53.31.86.56s.57.4.71.43.26.01.36-.06.22-.26.36-.58l.24.05z"/><path d="m70.95 126.51v.31s-5.9.07-5.9.07v-.31s.37 0 .37 0c.33 0 .59-.06.79-.18.14-.08.25-.21.33-.4.06-.13.09-.48.08-1.05l-.09-7.42c0-.58-.04-.94-.1-1.08s-.19-.27-.37-.37c-.19-.11-.44-.16-.75-.15h-.37s0-.3 0-.3l5.9-.07v.31s-.37 0-.37 0c-.33 0-.59.07-.79.18-.14.08-.26.21-.34.4-.06.13-.09.48-.08 1.05l.09 7.42c0 .58.04.94.11 1.08s.19.27.38.37c.19.11.44.16.75.15h.37z"/><path d="m82.6 121.58-3.86 1-.18 1.18c-.06.39-.06.71 0 .94.08.31.26.5.55.58.17.05.54.02 1.12-.09l.08.3-3.63.95-.08-.3c.38-.16.66-.41.84-.74s.35-.96.51-1.89l1.64-9.73.15-.04 6.27 7.93c.6.75 1.05 1.21 1.34 1.36.22.12.51.15.85.09l.08.3-5.29 1.37-.08-.3.22-.06c.43-.11.71-.25.85-.41.1-.12.12-.26.08-.42-.02-.1-.07-.19-.13-.29-.02-.05-.16-.23-.4-.54l-.93-1.21zm-.43-.52-2.61-3.34-.7 4.2 3.3-.86z"/><path d="m98 114.67-3.39 2.1.18 1.18c.06.39.16.69.28.89.17.27.4.4.69.39.17 0 .52-.14 1.05-.41l.16.26-3.19 1.98-.16-.26c.31-.27.51-.58.58-.96.08-.37.05-1.02-.08-1.95l-1.32-9.78.13-.08 8.34 5.71c.79.54 1.35.84 1.69.9.25.05.53 0 .84-.17l.16.26-4.64 2.88-.16-.26.19-.12c.37-.23.6-.45.69-.64.06-.14.04-.28-.05-.42-.05-.08-.12-.16-.21-.23-.04-.04-.22-.17-.54-.4l-1.25-.88zm-.57-.37-3.48-2.41.58 4.22 2.9-1.8z"/><path d="m35.52 19.96c-1.29-.9-2.65-1.04-4.18-.45-1.18.41-1.48 1.87-2.38 2.44-.9-1.57-3.73-.82-3.95.93-.11.71.73.71 1.12 1.1.38-.09.35.5.67.35.28 1.36-3.33 3.16-1.47 3.89 1.39-.37 2.03.16 2.71-1.82.65.15 1.72 1.66.85 2.28-.16 1.82 1.84-.15 2.35 1.22.29.44.78.7.98.99.65.49.65 1.63 1.56 1.64 1.47-.75.52-2.87-.2-3.88-.27-.9-1.72-1.27-1.5-2.31.65 0 .81-.67 1.45-.9.27-.22 0-.56.11-.82-.3-.43.2-.78.24-1.15.29-.18.03-.58.32-.71.54-1.61 1.11-.19 1.29-1.78.06-.3.42-.77.01-1.02zm-3.27 2.39c.5 1.25-1.42 4.39-2.12 2.01-1.05-.66.19-1.85.85-2.38.48-1.7 1.61-.86 1.26.38z"/><path d="m47.83 14.82c1.04-.26 1.93-1.37 3.13-.99.66-.52 2.28.17 3.01-.84.77-2.6-1.32-1.39-2.71-1.37-.9-.07-2.7 2.26-2.79.69.71-.19 1.22-1.46.79-2.2-.26-.36-.58.08-.89.04-.64-.38-.38-.55-1.28-.17-.13.35-.58.08-.65.45-.49.09-.78 1.37-1.12.67-.14-.3-.02-.57-.45-.75-.93-.74-3.06.99-1.4 1.62.72.1-.16 1.88-.54 1.4-1.24-.56-2.38.31-1.18 1.37.44 0 2.3 1.43 1.98 1.85-.99.94-4.56 1.54-3.65 3.25.52.47 1.33.17 1.99.55.62.19.98-.27 1.26-.69-.2-.72.79-1.33 1.25-1.93.65-.89 1.24-1.24.94.28.17.78-.67.93-.72 1.63-.7 1.37-1.46 2.48-2.72 3.29.13 2.77 4.18-1.83 4.5-2.69.6-.49.76-1.68.7-2.59-.62-1.25-.42-1.94.56-2.9zm-3.22.8c-.26-.34-1.1-1.46-.64-1.67 0-.04-.12-.1-.15-.12.78-.62 1.67 1.56.79 1.79zm1.94-1.58c-1.42-1.35 1.29-4.56.75-1.46-.4.38.04 1.42-.75 1.46z"/><path d="m72.06 9.11c-.3.09-.65.22-.87-.08.14-1-2.17-.54-1.18-1.51.14.06.01-.23.17-.17.25.42 1.2-.05 1.52-.22-.29-3.3-4.21.75-4.52-.76l-.04.13c-.57-.22-.97.4-1.04.92-1.12-1.85-2.54-.22-3.95.28-.35.26-.74 0-1-.21-.49.1-1.74.34-1.34 1.01.69.98 3.66 1.52 1.62 2.55-.56.26.18.87-.39 1.22-.47.39-.47 1.13-1.12 1.31-.04 1.39-1.54 1.03-2.21 1.92-.05.36.17.81.61.69.37.93.83 2.01 1.78.86 1.29-.14.73-2.1 1.72-2.7.42.63.19 1.51.71 2.04 1.29.28.43-1.57 1.25-1.61.48.04.43-.61.91-.48 1.41-.48-.75-1.25.47-1.78-.09-.35.48-.18.39-.57 3.36-.33-1.82 5.57.98 4.73.79-1.25 1.86-2.65 1.67-4.35.1-.26-.27-1.01.17-1.04-.08-.21.05-.26.08-.48.27-.12.35.24.61.08-.08 1.6 0 3.43.16 5.17-.4.7-.36.99.31 1.6.56.23.85-.11 1.39-.27.28-1.4.3-2.65.28-4.08 0-.73-.79-2.52.12-2.73 2.14 1.5 2.97-2.05.73-1.44zm-8.79 3.95c-.59-.26-.04-.83.43-.91.18.43-.17.65-.43.91zm5.67-3.33c-.95.44-1.53-1.6-2.39-.51.03.63.35 1.41-.6 1.22-1.01.65-1.21-.05-1.78.31-.2.1-.95 1.14-1.3.4.13-.04.08-.3.26-.26-.09-.13.03-.43.08-.48.03-.09.1-.16.18-.26 1.35-.34-.14-1.93 1.38-2.01.48-.09.83.48 1.3.08.43-.81.75.5 1.35.47.17.17.26-.18.39 0 .26.13.67-.24.65-.44.87-.2.47 1.02.48 1.47z"/><path d="m92.06 21.65c-.8-.28-.88-.6-.65-1.46.3-.25.04-.64.04-.97.2-.34.33-.76.21-1.14-1.71-2.36-1.39 2.09-1.7 2.96-.43.11-4.1-1.17-4.06-1.66-.37-1.71 2.35-1.62 2.46-2.86-.19-.75-1.27-.87-1.36-1.67.44-.86 1.65.89 2.03-.12-.33-1.88-2.03-.04-1.31-2.12.41-.76 1.49-.34 2.05.08.29.81-1.53.3-.76 1.23.4.26.9.46 1.33.43.06.31.27.4.54.28 2.24-.16.61-1.12.36-2.16l-.02.04c-.47-.81-1.42-1.12-2.29-1.17-.17-.26-.07-.5.02-.8.15-.46-.53-.42-.42-.89-.52-.34-1.6-.87-2.14-.31 1.22 3.61-.74.41-1.62 1.8 0 .31.32.59.35.82-.09 1.06-1.82.97-1.8 1.87.69.26 2.24-.15.84 1.02-1.16-.04-2.51.05-3.62-.47-2.06-.43.07 1.84 1 1.85.51-.33.92-.29 1.54-.38.39.36-.8 1.04-1.25 1.02-1.1.74-2.26-.26-3.3.19-.9-.36-2.41-1.65-2.62.05.06.01.12-.05.16.07.05 1.05 1.43.74 2.09 1.28.55.05 1.14.36 1.68.16.27.51 1.41-.03 1.96.28.49-.25.77-.41 1.18-.77.51.12.54-.48.79-.75.88-.38 1.02-1.43 1.94-1.86 1.59.64-3.16 3.8-1.04 5.04 1.64 1.63 4.64 1.8 6.07 3.37.82.46 1.49-1.56 1.31-2.27zm-6.32-6.84c-.31-.6-.47-1.02.09-1.43-.06-.17.26-.27.23-.42.09-.29 0-.58.4-.59.37.59-.95 1.08-.48 1.78 1.15.29.76 1.2-.23.65z"/><path d="m107.26 29.43c-1.11.4-1.83 2.29-3.14 1.7-.59-.94-1.6-1.36-2.52-1.89-.82-.47.11-1.9.81-1.69 2.5.78.14-1.67 1.5-1.98.22.21.42.57.75.47.6.26.66 1.5 1.39 1.37 2.12-1.58-4.37-3.26-5.3-4.5-1.1-.62-1.8-.81-1.14.71.41.74 1.5.4 2.03 1.07.65.08-1.98.29-2.39.08-1.27.28-5.34-1.56-3.72 1.1 1.17-.39.47.46 1.67.19.2.2.54.01.8-.03.27-.04.41.45.77.19.29-.44.77.19 1.16-.04.7.12 1.59-.14 2.27-.13-.29.99-2.15.99-2.23 2.31-.14 1.91 2.09 3.05 3.09 4.45.7.57 1.11 1.87 2.23 1.37.56-.3 1.63-.86 1.36-1.64.49-.53.15-1.33.77-1.65.58-.5.8-1.39-.17-1.47z"/><path d="m28.59 29.6c-.42-.42-1-1.21-1.69-1.03-.86-.14-4.02.35-2.32 1.56.43-.23.56.27.9.28.29-.13.54.18.77.26.67.07.61 1.02 1.3.9 1.89 1.07 2.57-.94 1.03-1.96z"/><path d="m52.46 15.48c-5.49-.17-6.99 1.63-.9 2.77.52.05.91.47 1.37.56l-.04.12c.2-.19.44.31.75.27.56.06.68-.51.89-.85-.06-1.19-1.11-2.12-2.07-2.87z"/><path d="m81.75 13c.48.04.9.4 1.19-.24.12.05.33 0 .36-.18.41-.37 1.03-.32 1.11-1.04-.24-.59.44-1.08.2-1.67-.66-.76-1.35.5-2.14.26-.6.97-2.59 2.22-.71 2.86z"/><path d="m109.41 24.73c.37-1.39.21-.7-.88-1.54-.03-.8-.93-.34-1.22-.85-.18-.7.22-1.76-.62-2.19-1.24-.47-.24 3.19-2.27.13-.65-.62-.86.46-1.51.66-1.9.71-.73-1.97.61-.97 1.74-.37.28-2.16-.7-2.56-.86.09-1.41-.97-2.28-1-1.37.32.19 1.25.06 1.96.03.57.98.66.96 1.08-.63 1.41-1.23-.39-1.84-.9-.97 0-1.16 1.61-1.96 1.97-.33.98-3.52 2.68-1.2 2.98 1.94.43 2.16-2.81 3.87-2.79.8.1.19 1.25.97 1.44 2.73 1.02 2.3-1.65 3.7.5.33.25.58.71.72 1.2-.99.88-1.98-1.67-2.83-.92-.02 1.29 1.66 1.23 2.14 1.9 1.01.43.68-.21 1.49-.45.23.34.62.32.93.4.31.51.98.65 1.42 1.03.67.19.92-.73.42-1.09zm-1.99-.86c-.24.07-.48.26-.76.12-.42-.58 1.16-.9.76-.12z"/></g></svg>